%TF.GenerationSoftware,KiCad,Pcbnew,(5.1.6)-1*%
%TF.CreationDate,2020-10-31T17:29:23-04:00*%
%TF.ProjectId,controlboard,636f6e74-726f-46c6-926f-6172642e6b69,rev?*%
%TF.SameCoordinates,Original*%
%TF.FileFunction,Soldermask,Bot*%
%TF.FilePolarity,Negative*%
%FSLAX46Y46*%
G04 Gerber Fmt 4.6, Leading zero omitted, Abs format (unit mm)*
G04 Created by KiCad (PCBNEW (5.1.6)-1) date 2020-10-31 17:29:23*
%MOMM*%
%LPD*%
G01*
G04 APERTURE LIST*
%ADD10C,1.700000*%
%ADD11R,1.700000X1.700000*%
%ADD12O,1.700000X1.700000*%
%ADD13C,2.800000*%
%ADD14R,2.100000X2.100000*%
%ADD15C,2.100000*%
%ADD16O,2.500000X2.500000*%
%ADD17C,2.500000*%
G04 APERTURE END LIST*
D10*
%TO.C,F*%
X83820000Y-40640000D03*
D11*
X76200000Y-38100000D03*
D12*
X83820000Y-38100000D03*
X76200000Y-40640000D03*
%TD*%
D13*
%TO.C,REF\u002A\u002A*%
X12700000Y-76200000D03*
%TD*%
%TO.C,REF\u002A\u002A*%
X96520000Y-76200000D03*
%TD*%
%TO.C,REF\u002A\u002A*%
X96520000Y-15240000D03*
%TD*%
%TO.C,REF\u002A\u002A*%
X12700000Y-15240000D03*
%TD*%
D14*
%TO.C,NodeMCU*%
X45720000Y-63500000D03*
X17780000Y-63500000D03*
D15*
X45720000Y-35560000D03*
X45720000Y-33020000D03*
X45720000Y-43180000D03*
X45720000Y-30480000D03*
X45720000Y-38100000D03*
X45720000Y-58420000D03*
X45720000Y-55880000D03*
X45720000Y-45720000D03*
X45720000Y-40640000D03*
X45720000Y-48260000D03*
X45720000Y-53340000D03*
X45720000Y-60960000D03*
X45720000Y-50800000D03*
X45720000Y-27940000D03*
X17780000Y-60960000D03*
X17780000Y-58420000D03*
X17780000Y-55880000D03*
X17780000Y-53340000D03*
X17780000Y-50800000D03*
X17780000Y-48260000D03*
X17780000Y-45720000D03*
X17780000Y-43180000D03*
X17780000Y-40640000D03*
X17780000Y-38100000D03*
X17780000Y-35560000D03*
X17780000Y-33020000D03*
X17780000Y-30480000D03*
X17780000Y-27940000D03*
%TD*%
D14*
%TO.C,P1*%
X91440000Y-19050000D03*
X91440000Y-21590000D03*
X91440000Y-25400000D03*
X91440000Y-27940000D03*
X91440000Y-31750000D03*
X91440000Y-34290000D03*
X91440000Y-38100000D03*
X91440000Y-40640000D03*
X91440000Y-72390000D03*
X91440000Y-69850000D03*
X91440000Y-66040000D03*
X91440000Y-63500000D03*
X91440000Y-59690000D03*
X91440000Y-57150000D03*
X91440000Y-53340000D03*
X91440000Y-50800000D03*
X91440000Y-46990000D03*
X91440000Y-44450000D03*
%TD*%
D12*
%TO.C,O8*%
X83820000Y-63500000D03*
X76200000Y-66040000D03*
X83820000Y-66040000D03*
D11*
X76200000Y-63500000D03*
%TD*%
%TO.C,O0*%
X76200000Y-19050000D03*
D12*
X83820000Y-21590000D03*
X76200000Y-21590000D03*
X83820000Y-19050000D03*
%TD*%
%TO.C,O1*%
X83820000Y-25400000D03*
X76200000Y-27940000D03*
X83820000Y-27940000D03*
D11*
X76200000Y-25400000D03*
%TD*%
%TO.C,O2*%
X76200000Y-31750000D03*
D12*
X83820000Y-34290000D03*
X76200000Y-34290000D03*
X83820000Y-31750000D03*
%TD*%
%TO.C,O5*%
X83820000Y-44450000D03*
X76200000Y-46990000D03*
X83820000Y-46990000D03*
D11*
X76200000Y-44450000D03*
%TD*%
%TO.C,O6*%
X76200000Y-50800000D03*
D12*
X83820000Y-53340000D03*
X76200000Y-53340000D03*
X83820000Y-50800000D03*
%TD*%
%TO.C,O7*%
X83820000Y-57150000D03*
X76200000Y-59690000D03*
X83820000Y-59690000D03*
D11*
X76200000Y-57150000D03*
%TD*%
%TO.C,OX1*%
X76200000Y-69850000D03*
D12*
X83820000Y-72390000D03*
X76200000Y-72390000D03*
X83820000Y-69850000D03*
%TD*%
D16*
%TO.C,R0*%
X53340000Y-20320000D03*
D17*
X68580000Y-20320000D03*
%TD*%
%TO.C,R1*%
X68580000Y-26352500D03*
D16*
X53340000Y-26352500D03*
%TD*%
%TO.C,R2*%
X53340000Y-32385000D03*
D17*
X68580000Y-32385000D03*
%TD*%
%TO.C,R5*%
X68580000Y-44450000D03*
D16*
X53340000Y-44450000D03*
%TD*%
%TO.C,R6*%
X53340000Y-50482500D03*
D17*
X68580000Y-50482500D03*
%TD*%
%TO.C,R7*%
X68580000Y-56515000D03*
D16*
X53340000Y-56515000D03*
%TD*%
D17*
%TO.C,R8*%
X53340000Y-62547500D03*
D16*
X68580000Y-62547500D03*
%TD*%
%TO.C,RV1*%
X53340000Y-38417500D03*
D17*
X68580000Y-38417500D03*
%TD*%
%TO.C,RX1*%
X53340000Y-68580000D03*
D16*
X68580000Y-68580000D03*
%TD*%
M02*
