M48
; DRILL file {KiCad (5.1.6)-1} date 10/31/20 17:29:33
; FORMAT={-:-/ absolute / inch / decimal}
; #@! TF.CreationDate,2020-10-31T17:29:33-04:00
; #@! TF.GenerationSoftware,Kicad,Pcbnew,(5.1.6)-1
; #@! TF.FileFunction,Plated,1,2,PTH
FMAT,2
INCH
T1C0.0315
T2C0.0472
%
G90
G05
T1
X3.0Y-1.0
X3.0Y-1.1
X3.3Y-1.0
X3.3Y-1.1
X3.0Y-2.0
X3.0Y-2.1
X3.3Y-2.0
X3.3Y-2.1
X3.0Y-0.75
X3.0Y-0.85
X3.3Y-0.75
X3.3Y-0.85
X3.0Y-2.75
X3.0Y-2.85
X3.3Y-2.75
X3.3Y-2.85
X3.0Y-1.25
X3.0Y-1.35
X3.3Y-1.25
X3.3Y-1.35
X3.0Y-1.5
X3.0Y-1.6
X3.3Y-1.5
X3.3Y-1.6
X3.0Y-2.5
X3.0Y-2.6
X3.3Y-2.5
X3.3Y-2.6
X3.0Y-2.25
X3.0Y-2.35
X3.3Y-2.25
X3.3Y-2.35
X3.0Y-1.75
X3.0Y-1.85
X3.3Y-1.75
X3.3Y-1.85
T2
X2.1Y-0.8
X2.7Y-0.8
X2.1Y-2.225
X2.7Y-2.225
X2.1Y-1.275
X2.7Y-1.275
X2.1Y-1.9875
X2.7Y-1.9875
X2.1Y-2.7
X2.7Y-2.7
X2.1Y-1.5125
X2.7Y-1.5125
X2.1Y-1.0375
X2.7Y-1.0375
X3.6Y-0.75
X3.6Y-0.85
X3.6Y-1.0
X3.6Y-1.1
X3.6Y-1.25
X3.6Y-1.35
X3.6Y-1.5
X3.6Y-1.6
X3.6Y-1.75
X3.6Y-1.85
X3.6Y-2.0
X3.6Y-2.1
X3.6Y-2.25
X3.6Y-2.35
X3.6Y-2.5
X3.6Y-2.6
X3.6Y-2.75
X3.6Y-2.85
X2.1Y-1.75
X2.7Y-1.75
X2.1Y-2.4625
X2.7Y-2.4625
X0.7Y-1.1
X0.7Y-1.2
X0.7Y-1.3
X0.7Y-1.4
X0.7Y-1.5
X0.7Y-1.6
X0.7Y-1.7
X0.7Y-1.8
X0.7Y-1.9
X0.7Y-2.0
X0.7Y-2.1
X0.7Y-2.2
X0.7Y-2.3
X0.7Y-2.4
X0.7Y-2.5
X1.8Y-1.1
X1.8Y-1.2
X1.8Y-1.3
X1.8Y-1.4
X1.8Y-1.5
X1.8Y-1.6
X1.8Y-1.7
X1.8Y-1.8
X1.8Y-1.9
X1.8Y-2.0
X1.8Y-2.1
X1.8Y-2.2
X1.8Y-2.3
X1.8Y-2.4
X1.8Y-2.5
T0
M30
